<?xml version="1.0" encoding="UTF-8"?><svg id="Layer_2" xmlns="http://www.w3.org/2000/svg" viewBox="0 0 232.87 232.87"><defs><style>.cls-1{fill:#fff;}.cls-2{fill:#121212;}.cls-3{fill:#ededed;}</style></defs><g id="Layer_1-2"><circle class="cls-1" cx="116.43" cy="116.43" r="116.43"/><g><path class="cls-3" d="M116.43,66.75v94.47s98.81-24.93,97.3-25.38l-33.02-9.78-14.68-72.46-49.6,13.15Z"/><path class="cls-2" d="M116.43,0C52.13,0,0,52.13,0,116.43s52.13,116.43,116.43,116.43,116.43-52.13,116.43-116.43S180.74,0,116.43,0Zm-49.6,53.61l49.6,13.15,49.6-13.15,12.92,63.79-62.52,.46-62.52-.49,12.91-63.76Zm49.6,107.62l-97.3-25.38,33.02-9.78,64.28,11.77,64.28-11.77,33.02,9.78-97.3,25.38Z"/></g></g></svg>