<?xml version="1.0" encoding="UTF-8"?><svg id="Layer_2" xmlns="http://www.w3.org/2000/svg" viewBox="0 0 564.51 64.93"><defs><style>.cls-1{fill:#fff;}</style></defs><g id="Layer_1-2"><g><path class="cls-1" d="M50.22,1.1V7.4h-15.4V63.87H15.5V7.4H0V1.1H50.22Z"/><path class="cls-1" d="M80.61,0c18.27,0,27.41,10.82,27.41,32.47s-9.31,32.47-27.91,32.47-27.91-11.07-27.91-33.2S61.67,0,80.61,0Zm-.51,5.01c-3.43,0-5.76,1.89-6.97,5.68-1.21,3.79-1.82,11.04-1.82,21.77s.6,17.99,1.82,21.77c1.21,3.79,3.53,5.68,6.97,5.68s5.75-1.89,6.97-5.68c1.21-3.79,1.82-11.04,1.82-21.77s-.61-17.95-1.82-21.75c-1.21-3.8-3.53-5.7-6.97-5.7Z"/><path class="cls-1" d="M164.4,1.1l-15.68,19.82,23.13,42.95h-20.28l-14.72-27.5-2.62,2.94v24.56h-18.21V1.1h18.21V29.06L155.84,1.1h8.55Z"/><path class="cls-1" d="M220.4,1.1l-15.31,39.59v23.18h-18.21v-23.18L169.96,1.1h18.9l12.78,30.26L213.14,1.1h7.27Z"/><path class="cls-1" d="M250.2,0c18.27,0,27.41,10.82,27.41,32.47s-9.3,32.47-27.91,32.47-27.91-11.07-27.91-33.2S231.26,0,250.2,0Zm-.51,5.01c-3.43,0-5.76,1.89-6.97,5.68-1.21,3.79-1.82,11.04-1.82,21.77s.61,17.99,1.82,21.77c1.21,3.79,3.53,5.68,6.97,5.68s5.76-1.89,6.97-5.68c1.21-3.79,1.82-11.04,1.82-21.77s-.61-17.95-1.82-21.75c-1.21-3.8-3.53-5.7-6.97-5.7Z"/><path class="cls-1" d="M359.78,1.1V63.87h-13.93l-26.21-39.73V63.87h-6.12V1.1h11.54l28.6,42.9V1.1h6.12Z"/><path class="cls-1" d="M395.93,0c18.27,0,27.41,10.82,27.41,32.47s-9.3,32.47-27.91,32.47-27.91-11.07-27.91-33.2S376.98,0,395.93,0Zm-.51,5.01c-3.43,0-5.76,1.89-6.97,5.68-1.21,3.79-1.82,11.04-1.82,21.77s.61,17.99,1.82,21.77c1.21,3.79,3.53,5.68,6.97,5.68s5.76-1.89,6.97-5.68c1.21-3.79,1.82-11.04,1.82-21.77s-.61-17.95-1.82-21.75c-1.21-3.8-3.53-5.7-6.97-5.7Z"/><path class="cls-1" d="M449.64,1.1V63.87h-18.21V1.1h18.21Z"/><path class="cls-1" d="M460.54,63.87V1.1h26.99c7.02,0,12.63,1.48,16.83,4.44s6.3,6.92,6.3,11.89c0,7.6-4.51,12.55-13.52,14.85,4.63,1.72,7.63,3.6,8.99,5.66s2.29,6.04,2.78,11.96c.58,7.05,1.76,11.71,3.54,13.98h-19.77c-1.26-2.91-1.89-6.55-1.89-10.9l-.09-3.72-.09-4.69c0-7.23-2.91-10.85-8.74-10.85h-3.13v30.17h-18.21Zm18.21-35.36h3.68c6.9,0,10.35-3.6,10.35-10.81s-3.45-10.81-10.35-10.81h-3.68V28.51Z"/><path class="cls-1" d="M560.69,1.1V7.4h-22.49V26.4h18.9v6.3h-18.9v24.88h26.3v6.3h-44.51V1.1h40.7Z"/></g></g></svg>