<?xml version="1.0" encoding="UTF-8"?><svg id="Layer_1" xmlns="http://www.w3.org/2000/svg" viewBox="0 0 40.6 40.6"><defs><style>.cls-1{fill:#fff;}</style></defs><path class="cls-1" d="m20.3,40.6c-2.77,0-5.39-.53-7.88-1.6s-4.64-2.52-6.48-4.35c-1.83-1.83-3.28-3.98-4.35-6.45s-1.6-5.1-1.6-7.9.53-5.44,1.6-7.92c1.07-2.48,2.52-4.63,4.35-6.45,1.83-1.82,3.98-3.26,6.45-4.33,2.47-1.07,5.1-1.6,7.9-1.6s5.44.53,7.92,1.6c2.48,1.07,4.63,2.51,6.45,4.32,1.82,1.82,3.26,3.96,4.33,6.42,1.07,2.47,1.6,5.12,1.6,7.95s-.53,5.43-1.6,7.9-2.51,4.62-4.33,6.45c-1.82,1.83-3.96,3.28-6.42,4.35-2.47,1.07-5.12,1.6-7.95,1.6Z"/><path d="m20.3,37.2c4.7,0,8.69-1.65,11.97-4.95s4.92-7.28,4.93-11.95c0-4.7-1.64-8.69-4.92-11.98-3.28-3.28-7.27-4.93-11.98-4.92-4.67,0-8.65,1.64-11.95,4.92-3.3,3.28-4.95,7.28-4.95,11.98s1.65,8.65,4.95,11.95c3.3,3.3,7.28,4.95,11.95,4.95Z"/><polygon class="cls-1" points="12.9 29.9 20.3 22.5 27.7 29.9 29.9 27.7 22.5 20.3 29.9 12.9 27.7 10.7 20.3 18.1 12.9 10.7 10.7 12.9 18.1 20.3 10.7 27.7 12.9 29.9"/></svg>