<?xml version="1.0" encoding="UTF-8"?><svg id="Layer_1" xmlns="http://www.w3.org/2000/svg" viewBox="0 0 37.45 37.45"><path d="m37.45,8.3v25.2c0,1.07-.39,1.99-1.17,2.78-.78.78-1.72,1.17-2.83,1.17H3.95c-1.07,0-1.99-.39-2.78-1.17-.78-.78-1.17-1.71-1.17-2.78V4C0,2.9.39,1.96,1.18,1.18,1.96.39,2.88,0,3.95,0h25.2l8.3,8.3Zm-4,1.75l-6.05-6.05H3.95v29.5h29.5V10.05Zm-14.75,20.2c1.43,0,2.66-.51,3.67-1.53s1.52-2.24,1.53-3.67-.51-2.66-1.52-3.67-2.24-1.52-3.68-1.52-2.66.5-3.67,1.5-1.52,2.23-1.53,3.7c0,1.43.51,2.66,1.52,3.67s2.24,1.52,3.68,1.53ZM6.6,13.8h17.9v-7.15H6.6v7.15Zm-2.65-3.75v23.45V4v6.05Z"/></svg>